<svg class="icon" style="width: 1em; height: 1em;vertical-align: middle;fill: currentColor;overflow: hidden;" viewBox="0 0 1024 1024" version="1.1" xmlns="http://www.w3.org/2000/svg" p-id="14054"><path d="M112.306 588.168l-82.11 77.034 333.685 69.274 386.096 113.459 249.828-327.843-494.413-155.859z" fill="#FFFFFF" p-id="14055"></path><path d="M754.956 863.119L360.683 747.257 2.707 672.94l101.729-95.439L503.869 349.95l517.762 163.219-266.675 349.95zM57.685 657.464l309.396 64.23 0.513 0.151L744.997 832.75l232.981-305.735-471.063-148.498-386.739 220.318-62.491 58.629z" fill="#2566B1" p-id="14056"></path><path d="M948.713 575.266l6.17 16.297L483.38 770.091l-6.17-16.297zM979.824 518.009l6.165 16.298-457.287 172.98-6.165-16.298zM891.624 638.73l5.983 16.367-358.356 131.025-5.984-16.365zM851.395 693.482l5.897 16.397-265 95.299-5.897-16.398z" fill="#2566B1" p-id="14057"></path><path d="M601.637 674.195l6.113 16.318-180.36 67.567-6.113-16.318zM820.707 742.246l5.97 16.371-171.439 62.518-5.97-16.372z" fill="#2566B1" p-id="14058"></path><path d="M367.375 722.901s225.367-26.207 373.867 31.445L978.84 457.351s-47.174-29.674-76.871-33.195c-235.85-27.952-534.594 298.745-534.594 298.745z" fill="#FFFFFF" p-id="14059"></path><path d="M744.788 767.523l-7.527-2.923c-78.009-30.285-178.575-36.643-249.204-36.643-68.053 0-118.906 5.812-119.412 5.87l-29.272 3.397 19.885-21.747c0.693-0.759 70.454-76.684 167.59-151.513C584.053 519.895 639.5 484.748 691.649 459.5c65.845-31.879 126.742-48.043 181.002-48.043 10.387 0 20.687 0.597 30.613 1.772 31.795 3.771 79.421 33.543 81.434 34.808l10.43 6.562-250.34 312.924z m-256.731-61.565c70.269 0 169.62 6.214 249.582 35.285l224.71-280.888c-16.769-9.504-43.991-23.18-61.675-25.276-9.07-1.075-18.499-1.62-28.023-1.62-115.906 0-244.574 80.333-332.104 147.725-65.068 50.098-117.646 100.678-144.85 128.155 21.976-1.617 54.593-3.381 92.36-3.381z" fill="#2566B1" p-id="14060"></path><path d="M900.223 359.517s31.447-5.242 55.906 19.215L729.012 677.479s-218.378-64.643-342.42 24.457l167.135-152.574 346.496-189.845z" fill="#FFFFFF" p-id="14061"></path><path d="M393.009 710.871l-13.833-17.059 168.109-153.464 1.157-0.633 348.132-190.743 1.841-0.307c0.382-0.063 3.885-0.621 9.265-0.621 12.443 0 36.294 2.976 56.229 22.908l6.791 6.79-237.528 312.441-7.282-2.155c-0.749-0.222-76.157-22.203-161.602-22.203-72.039-0.001-129.666 15.154-171.279 45.046z m171.279-67.047c73.968 0 139.008 15.394 160.474 21.069l216.305-284.524c-12.528-8.834-25.84-10.324-33.388-10.324-1.698 0-3.084 0.076-4.064 0.156L560.169 558.376l-110.56 100.927c33.388-10.292 71.714-15.479 114.679-15.479zM200.88 584.567l5.97 16.371-158.694 57.87-5.97-16.371zM241.98 602.018l6 16.36-165.649 60.768-6.001-16.359zM300.477 611.965l6.01 16.355-165.48 60.808-6.01-16.355zM342.766 625.645l5.97 16.371-158.693 57.87-5.97-16.372zM412.463 634.361l6.035 16.348-170.84 63.065-6.034-16.347z" fill="#2566B1" p-id="14062"></path><path d="M190.263 457.591L59.241 596.474s238.253 42.568 308.135 126.428l16.799-110.707-193.912-154.604z" fill="#FFFFFF" p-id="14063"></path><path d="M374.582 748.731l-15.657-18.788c-66.507-79.81-299.277-122.223-301.62-122.642l-20.023-3.581 151.925-161.04 206.797 164.877-21.422 141.174zM80.888 589.557c23.344 4.893 64.736 14.341 109.465 28.175 78.638 24.322 135.474 51.771 169.445 81.782l12.546-82.683-181.025-144.33L80.888 589.557z" fill="#2566B1" p-id="14064"></path><path d="M458.221 251.2s-34.941-22.713-57.651-22.713l-283.023 277.78s217.315 74.252 244.586 192.176L458.221 251.2z" fill="#FFFFFF" p-id="14065"></path><path d="M362.528 748.972l-11.112-48.051c-25.574-110.587-235.312-183.522-237.427-184.246l-16.868-5.771 298.953-293.417h4.496c25.242 0 59.79 21.983 63.646 24.49l6.351 4.128-108.039 502.867zM137.612 501.986c20.669 8.062 58.102 23.895 97.498 46.618 34.312 19.791 62.9 40.71 84.971 62.176 16.687 16.229 29.707 32.85 38.958 49.698l86.788-403.954c-10.647-6.17-28.162-15.003-41.067-16.735L137.612 501.986z" fill="#2566B1" p-id="14066"></path><path d="M671.359 383.976s97.834-92.594 269.045-54.16L729.012 597.114S551.979 547.032 382.515 707.76" fill="#FFFFFF" p-id="14067"></path><path d="M390.085 715.742l-15.14-15.963c39.568-37.528 82.885-66.857 128.748-87.172 36.783-16.293 75.257-26.847 114.355-31.37 52.177-6.037 91.183 0.252 106.686 3.554l195.912-247.725c-76.793-13.569-136.438 0.417-173.891 15.235-43.717 17.297-67.614 39.456-67.851 39.679l-15.106-15.994c1.062-1.004 26.527-24.81 73.795-43.717 43.286-17.314 114.028-33.655 205.221-13.188l17.072 3.833-226.802 286.784-7.066-1.999c-0.414-0.117-43.71-11.935-106.49-4.484-57.775 6.854-144.478 31.941-229.443 112.527z" fill="#2566B1" p-id="14068"></path><path d="M508.884 183.065s145.004 75.121 162.475 200.91L367.375 722.901s-22.713-178.199-165.969-246.334l307.478-293.502z" fill="#FFFFFF" p-id="14069"></path><path d="M359.505 748.151l-3.041-23.858c-0.1-0.758-5.955-44.263-28.667-95.133-20.766-46.509-60.369-109.012-131.114-142.659l-14.425-6.861L506.97 169.686l6.974 3.612c1.531 0.794 37.944 19.828 76.975 54.866 23.035 20.68 42.183 42.671 56.91 65.363 18.635 28.713 30.218 58.635 34.426 88.935l0.702 5.058-323.452 360.631zM220.183 473.852c28.408 15.708 53.916 36.794 75.985 62.839 20.384 24.056 37.878 52.36 51.997 84.127 13.915 31.309 21.745 59.57 25.913 78.138l285.619-318.449c-10.036-59.164-50.449-106.239-83.07-135.608-27.38-24.65-53.935-41.241-66.019-48.269L220.183 473.852z" fill="#2566B1" p-id="14070"></path></svg>